<svg id="mermaidSvgChart" width="100%" xmlns="http://www.w3.org/2000/svg" xmlns:xlink="http://www.w3.org/1999/xlink" height="383" style="max-width: 401.5703125px;" viewBox="-20 -20 401.5703125 383"><style>#mermaidSvgChart{font-family:"trebuchet ms",verdana,arial,sans-serif;font-size:16px;fill:#ccc;}#mermaidSvgChart .error-icon{fill:#a44141;}#mermaidSvgChart .error-text{fill:#ddd;stroke:#ddd;}#mermaidSvgChart .edge-thickness-normal{stroke-width:2px;}#mermaidSvgChart .edge-thickness-thick{stroke-width:3.5px;}#mermaidSvgChart .edge-pattern-solid{stroke-dasharray:0;}#mermaidSvgChart .edge-pattern-dashed{stroke-dasharray:3;}#mermaidSvgChart .edge-pattern-dotted{stroke-dasharray:2;}#mermaidSvgChart .marker{fill:lightgrey;stroke:lightgrey;}#mermaidSvgChart .marker.cross{stroke:lightgrey;}#mermaidSvgChart svg{font-family:"trebuchet ms",verdana,arial,sans-serif;font-size:16px;}#mermaidSvgChart g.classGroup text{fill:#81B1DB;fill:#e0dfdf;stroke:none;font-family:"trebuchet ms",verdana,arial,sans-serif;font-size:10px;}#mermaidSvgChart g.classGroup text .title{font-weight:bolder;}#mermaidSvgChart .classTitle{font-weight:bolder;}#mermaidSvgChart .node rect,#mermaidSvgChart .node circle,#mermaidSvgChart .node ellipse,#mermaidSvgChart .node polygon,#mermaidSvgChart .node path{fill:#1f2020;stroke:#81B1DB;stroke-width:1px;}#mermaidSvgChart .divider{stroke:#81B1DB;stroke:1;}#mermaidSvgChart g.clickable{cursor:pointer;}#mermaidSvgChart g.classGroup rect{fill:#1f2020;stroke:#81B1DB;}#mermaidSvgChart g.classGroup line{stroke:#81B1DB;stroke-width:1;}#mermaidSvgChart .classLabel .box{stroke:none;stroke-width:0;fill:#1f2020;opacity:0.5;}#mermaidSvgChart .classLabel .label{fill:#81B1DB;font-size:10px;}#mermaidSvgChart .relation{stroke:lightgrey;stroke-width:1;fill:none;}#mermaidSvgChart .dashed-line{stroke-dasharray:3;}#mermaidSvgChart #compositionStart,#mermaidSvgChart .composition{fill:lightgrey !important;stroke:lightgrey !important;stroke-width:1;}#mermaidSvgChart #compositionEnd,#mermaidSvgChart .composition{fill:lightgrey !important;stroke:lightgrey !important;stroke-width:1;}#mermaidSvgChart #dependencyStart,#mermaidSvgChart .dependency{fill:lightgrey !important;stroke:lightgrey !important;stroke-width:1;}#mermaidSvgChart #dependencyStart,#mermaidSvgChart .dependency{fill:lightgrey !important;stroke:lightgrey !important;stroke-width:1;}#mermaidSvgChart #extensionStart,#mermaidSvgChart .extension{fill:lightgrey !important;stroke:lightgrey !important;stroke-width:1;}#mermaidSvgChart #extensionEnd,#mermaidSvgChart .extension{fill:lightgrey !important;stroke:lightgrey !important;stroke-width:1;}#mermaidSvgChart #aggregationStart,#mermaidSvgChart .aggregation{fill:#1f2020 !important;stroke:lightgrey !important;stroke-width:1;}#mermaidSvgChart #aggregationEnd,#mermaidSvgChart .aggregation{fill:#1f2020 !important;stroke:lightgrey !important;stroke-width:1;}#mermaidSvgChart .edgeTerminals{font-size:11px;}#mermaidSvgChart:root{--mermaid-font-family:"trebuchet ms",verdana,arial,sans-serif;}#mermaidSvgChart class{fill:apa;}</style><g></g><defs><marker id="extensionStart" class="extension" refX="0" refY="7" markerWidth="190" markerHeight="240" orient="auto"><path d="M 1,7 L18,13 V 1 Z"></path></marker></defs><defs><marker id="extensionEnd" refX="19" refY="7" markerWidth="20" markerHeight="28" orient="auto"><path d="M 1,1 V 13 L18,7 Z"></path></marker></defs><defs><marker id="compositionStart" class="extension" refX="0" refY="7" markerWidth="190" markerHeight="240" orient="auto"><path d="M 18,7 L9,13 L1,7 L9,1 Z"></path></marker></defs><defs><marker id="compositionEnd" refX="19" refY="7" markerWidth="20" markerHeight="28" orient="auto"><path d="M 18,7 L9,13 L1,7 L9,1 Z"></path></marker></defs><defs><marker id="aggregationStart" class="extension" refX="0" refY="7" markerWidth="190" markerHeight="240" orient="auto"><path d="M 18,7 L9,13 L1,7 L9,1 Z"></path></marker></defs><defs><marker id="aggregationEnd" refX="19" refY="7" markerWidth="20" markerHeight="28" orient="auto"><path d="M 18,7 L9,13 L1,7 L9,1 Z"></path></marker></defs><defs><marker id="dependencyStart" class="extension" refX="0" refY="7" markerWidth="190" markerHeight="240" orient="auto"><path d="M 5,7 L9,13 L1,7 L9,1 Z"></path></marker></defs><defs><marker id="dependencyEnd" refX="19" refY="7" markerWidth="20" markerHeight="28" orient="auto"><path d="M 18,7 L9,13 L14,7 L9,1 Z"></path></marker></defs><g id="classid-Room-0" class="classGroup" transform="translate(0,181 )"><rect x="0" y="0" width="36.03125" height="41" class=" "></rect><text y="15" x="0"><tspan class="title" x="5">Room</tspan></text><line x1="0" y1="21" y2="21" x2="36.03125"></line><text x="5" y="31" fill="white" class="classText"><tspan x="5">Id</tspan></text><line x1="0" y1="37" y2="37" x2="36.03125"></line><text x="5" y="52" fill="white" class="classText"></text></g><g id="classid-Teacher-1" class="classGroup" transform="translate(123.80078125,282 )"><rect x="0" y="0" width="60.9375" height="61" class=" "></rect><text y="15" x="0"><tspan class="title" x="11.5234375">Teacher</tspan></text><line x1="0" y1="21" y2="21" x2="60.9375"></line><text x="5" y="31" fill="white" class="classText"><tspan x="5">FirstName</tspan><tspan x="5" dy="10">Id</tspan><tspan x="5" dy="10">LastName</tspan></text><line x1="0" y1="57" y2="57" x2="60.9375"></line><text x="5" y="72" fill="white" class="classText"></text></g><g id="classid-Group-2" class="classGroup" transform="translate(302.515625,171 )"><rect x="0" y="0" width="57.171875" height="61" class=" "></rect><text y="15" x="0"><tspan class="title" x="14.3046875">Group</tspan></text><line x1="0" y1="21" y2="21" x2="57.171875"></line><text x="5" y="31" fill="white" class="classText"><tspan x="5">CuratorId</tspan><tspan x="5" dy="10">Id</tspan><tspan x="5" dy="10">Name</tspan></text><line x1="0" y1="57" y2="57" x2="57.171875"></line><text x="5" y="72" fill="white" class="classText"></text></g><g id="classid-ClassType-3" class="classGroup" transform="translate(106.03125,176 )"><rect x="0" y="0" width="55.546875" height="51" class=" "></rect><text y="15" x="0"><tspan class="title" x="5">ClassType</tspan></text><line x1="0" y1="21" y2="21" x2="55.546875"></line><text x="5" y="31" fill="white" class="classText"><tspan x="5">Id</tspan><tspan x="5" dy="10">Name</tspan></text><line x1="0" y1="47" y2="47" x2="55.546875"></line><text x="5" y="62" fill="white" class="classText"></text></g><g id="classid-Class-4" class="classGroup" transform="translate(211.578125,176 )"><rect x="0" y="0" width="40.9375" height="51" class=" "></rect><text y="15" x="0"><tspan class="title" x="8.9609375">Class</tspan></text><line x1="0" y1="21" y2="21" x2="40.9375"></line><text x="5" y="31" fill="white" class="classText"><tspan x="5">Id</tspan><tspan x="5" dy="10">Name</tspan></text><line x1="0" y1="47" y2="47" x2="40.9375"></line><text x="5" y="62" fill="white" class="classText"></text></g><g id="classid-Schedule-5" class="classGroup" transform="translate(110.6796875,0 )"><rect x="0" y="0" width="66.25" height="121" class=" "></rect><text y="15" x="0"><tspan class="title" x="11.8359375">Schedule</tspan></text><line x1="0" y1="21" y2="21" x2="66.25"></line><text x="5" y="31" fill="white" class="classText"><tspan x="5">ClassId</tspan><tspan x="5" dy="10">ClassTypeId</tspan><tspan x="5" dy="10">Day</tspan><tspan x="5" dy="10">GroupId</tspan><tspan x="5" dy="10">IsOddWeek</tspan><tspan x="5" dy="10">RoomId</tspan><tspan x="5" dy="10">Subgroup</tspan><tspan x="5" dy="10">TeacherId</tspan><tspan x="5" dy="10">Time</tspan></text><line x1="0" y1="117" y2="117" x2="66.25"></line><text x="5" y="132" fill="white" class="classText"></text></g><g id="classid-Student-6" class="classGroup" transform="translate(300.6328125,25 )"><rect x="0" y="0" width="60.9375" height="71" class=" "></rect><text y="15" x="0"><tspan class="title" x="12.2421875">Student</tspan></text><line x1="0" y1="21" y2="21" x2="60.9375"></line><text x="5" y="31" fill="white" class="classText"><tspan x="5">FirstName</tspan><tspan x="5" dy="10">GroupId</tspan><tspan x="5" dy="10">Id</tspan><tspan x="5" dy="10">LastName</tspan></text><line x1="0" y1="67" y2="67" x2="60.9375"></line><text x="5" y="82" fill="white" class="classText"></text></g><path d="M331.1015625,232L331.1015625,236.16666666666666C331.1015625,240.33333333333334,331.1015625,248.66666666666666,306.7076822916667,260.48952741758524C282.3138020833333,272.3123881685038,233.52604166666666,287.62477633700763,209.13216145833334,295.28097042125955L184.73828125,302.9371645055115" id="edge0" class="relation" marker-end="url(#extensionEnd)"></path><g class="classLabel"><rect class="box" x="263.15625" y="264.71875" width="13.375" height="16.015625"></rect><text class="label" x="269.84630435450634" y="276.2254016596605" fill="red" text-anchor="middle">Id</text></g><path d="M176.9296875,92.59561752988049L186.11588541666666,101.49634794156707C195.30208333333334,110.39707835325366,213.67447916666666,128.19853917662684,222.86067708333334,142.0992695883134C232.046875,156,232.046875,166,232.046875,171L232.046875,176" id="edge1" class="relation" marker-end="url(#extensionEnd)"></path><g class="classLabel"><rect class="box" x="208.578125" y="118.234375" width="13.375" height="16.015625"></rect><text class="label" x="215.26094616849653" y="129.73570561027233" fill="red" text-anchor="middle">Id</text></g><path d="M136.72866410818713,121L136.24133467348926,125.16666666666667C135.75400523879142,129.33333333333334,134.7793463693957,137.66666666666666,134.29201693469784,146.83333333333334C133.8046875,156,133.8046875,166,133.8046875,171L133.8046875,176" id="edge2" class="relation" marker-end="url(#extensionEnd)"></path><g class="classLabel"><rect class="box" x="127.125" y="136.90625" width="13.359375" height="16.015625"></rect><text class="label" x="133.8046875" y="148.4147940103745" fill="red" text-anchor="middle">Id</text></g><path d="M176.9296875,74.16247079219116L205.95833333333334,86.13539232682596C234.98697916666666,98.10831386146077,293.0442708333333,122.05415693073037,320.5714151651652,138.19374513203186C348.09855949699704,154.33333333333334,345.095556493994,162.66666666666666,343.59405499249254,166.83333333333334L342.092553490991,171" id="edge3" class="relation" marker-end="url(#extensionEnd)"></path><g class="classLabel"><rect class="box" x="269.609375" y="103.640625" width="13.375" height="16.015625"></rect><text class="label" x="276.2987162688572" y="115.14742032284516" fill="red" text-anchor="middle">Id</text></g><path d="M110.6796875,83.01537171604248L95.23567708333333,93.51280976336874C79.79166666666667,104.01024781069498,48.903645833333336,125.00512390534749,33.459635416666664,141.3358952860071C18.015625,157.66666666666666,18.015625,169.33333333333334,18.015625,175.16666666666666L18.015625,181" id="edge4" class="relation" marker-end="url(#extensionEnd)"></path><g class="classLabel"><rect class="box" x="43.1875" y="112.84375" width="13.375" height="16.015625"></rect><text class="label" x="49.874486612154456" y="124.34523436535505" fill="red" text-anchor="middle">Id</text></g><path d="M110.6796875,99.41787439613526L104.07161458333333,107.1815619967794C97.46354166666667,114.94524959742351,84.24739583333333,130.47262479871176,77.63932291666667,147.48631239935588C71.03125,164.5,71.03125,183,71.03125,201.5C71.03125,220,71.03125,238.5,79.826171875,253.61410671547233C88.62109375,268.72821343094466,106.2109375,280.4564268618893,115.005859375,286.3205335773617L123.80078125,292.184640292834" id="edge5" class="relation" marker-end="url(#extensionEnd)"></path><g class="classLabel"><rect class="box" x="64.34375" y="191.125" width="13.375" height="16.015625"></rect><text class="label" x="71.03125" y="202.62640822989647" fill="red" text-anchor="middle">Id</text></g><path d="M318.8416712353801,96L315.9637624878167,104.33333333333333C313.0858537402534,112.66666666666667,307.3300362451267,129.33333333333334,306.66889504636214,141.83333333333334C306.0077538475976,154.33333333333334,310.4412889451952,162.66666666666666,312.658056493994,166.83333333333334L314.8748240427928,171" id="edge6" class="relation" marker-end="url(#extensionEnd)"></path><g class="classLabel"><rect class="box" x="298.90625" y="122.875" width="13.359375" height="16.015625"></rect><text class="label" x="305.5860148259452" y="134.38335857781598" fill="red" text-anchor="middle">Id</text></g></svg>